<svg width="64" height="64" viewBox="0 0 64 64" fill="none" xmlns="http://www.w3.org/2000/svg">
<g clip-path="url(#clip0_87_244)">
<path fill-rule="evenodd" clip-rule="evenodd" d="M56 4H8C6.93913 4 5.92172 4.42143 5.17157 5.17157C4.42143 5.92172 4 6.93913 4 8V56C4 57.0609 4.42143 58.0783 5.17157 58.8284C5.92172 59.5786 6.93913 60 8 60H56C57.0609 60 58.0783 59.5786 58.8284 58.8284C59.5786 58.0783 60 57.0609 60 56V8C60 6.93913 59.5786 5.92172 58.8284 5.17157C58.0783 4.42143 57.0609 4 56 4ZM8 0C5.87827 0 3.84344 0.842855 2.34315 2.34315C0.842855 3.84344 0 5.87827 0 8L0 56C0 58.1217 0.842855 60.1566 2.34315 61.6569C3.84344 63.1571 5.87827 64 8 64H56C58.1217 64 60.1566 63.1571 61.6569 61.6569C63.1571 60.1566 64 58.1217 64 56V8C64 5.87827 63.1571 3.84344 61.6569 2.34315C60.1566 0.842855 58.1217 0 56 0L8 0Z" fill="#2A3380"/>
<path fill-rule="evenodd" clip-rule="evenodd" d="M8 60V56C8 52 12 40 32 40C52 40 56 52 56 56V60H8ZM32 36C35.1826 36 38.2348 34.7357 40.4853 32.4853C42.7357 30.2348 44 27.1826 44 24C44 20.8174 42.7357 17.7652 40.4853 15.5147C38.2348 13.2643 35.1826 12 32 12C28.8174 12 25.7652 13.2643 23.5147 15.5147C21.2643 17.7652 20 20.8174 20 24C20 27.1826 21.2643 30.2348 23.5147 32.4853C25.7652 34.7357 28.8174 36 32 36Z" fill="#F76D2E"/>
</g>
<defs>
<clipPath id="clip0_87_244">
<rect width="64" height="64" fill="white"/>
</clipPath>
</defs>
</svg>
