<svg width="64" height="64" viewBox="0 0 64 64" fill="none" xmlns="http://www.w3.org/2000/svg">
<g clip-path="url(#clip0_91_297)">
<path fill-rule="evenodd" clip-rule="evenodd" d="M6 4C5.46957 4 4.96086 4.21071 4.58579 4.58579C4.21071 4.96086 4 5.46957 4 6V18C4 18.5304 3.78929 19.0391 3.41421 19.4142C3.03914 19.7893 2.53043 20 2 20C1.46957 20 0.960859 19.7893 0.585786 19.4142C0.210714 19.0391 0 18.5304 0 18V6C0 4.4087 0.632141 2.88258 1.75736 1.75736C2.88258 0.632141 4.4087 0 6 0L18 0C18.5304 0 19.0391 0.210714 19.4142 0.585786C19.7893 0.960859 20 1.46957 20 2C20 2.53043 19.7893 3.03914 19.4142 3.41421C19.0391 3.78929 18.5304 4 18 4H6ZM44 2C44 1.46957 44.2107 0.960859 44.5858 0.585786C44.9609 0.210714 45.4696 0 46 0L58 0C59.5913 0 61.1174 0.632141 62.2426 1.75736C63.3679 2.88258 64 4.4087 64 6V18C64 18.5304 63.7893 19.0391 63.4142 19.4142C63.0391 19.7893 62.5304 20 62 20C61.4696 20 60.9609 19.7893 60.5858 19.4142C60.2107 19.0391 60 18.5304 60 18V6C60 5.46957 59.7893 4.96086 59.4142 4.58579C59.0391 4.21071 58.5304 4 58 4H46C45.4696 4 44.9609 3.78929 44.5858 3.41421C44.2107 3.03914 44 2.53043 44 2ZM2 44C2.53043 44 3.03914 44.2107 3.41421 44.5858C3.78929 44.9609 4 45.4696 4 46V58C4 58.5304 4.21071 59.0391 4.58579 59.4142C4.96086 59.7893 5.46957 60 6 60H18C18.5304 60 19.0391 60.2107 19.4142 60.5858C19.7893 60.9609 20 61.4696 20 62C20 62.5304 19.7893 63.0391 19.4142 63.4142C19.0391 63.7893 18.5304 64 18 64H6C4.4087 64 2.88258 63.3679 1.75736 62.2426C0.632141 61.1174 0 59.5913 0 58L0 46C0 45.4696 0.210714 44.9609 0.585786 44.5858C0.960859 44.2107 1.46957 44 2 44ZM62 44C62.5304 44 63.0391 44.2107 63.4142 44.5858C63.7893 44.9609 64 45.4696 64 46V58C64 59.5913 63.3679 61.1174 62.2426 62.2426C61.1174 63.3679 59.5913 64 58 64H46C45.4696 64 44.9609 63.7893 44.5858 63.4142C44.2107 63.0391 44 62.5304 44 62C44 61.4696 44.2107 60.9609 44.5858 60.5858C44.9609 60.2107 45.4696 60 46 60H58C58.5304 60 59.0391 59.7893 59.4142 59.4142C59.7893 59.0391 60 58.5304 60 58V46C60 45.4696 60.2107 44.9609 60.5858 44.5858C60.9609 44.2107 61.4696 44 62 44Z" fill="#2A3380"/>
<path fill-rule="evenodd" clip-rule="evenodd" d="M12 56C12 56 8 56 8 52C8 48 12 36 32 36C52 36 56 48 56 52C56 56 52 56 52 56H12ZM32 32C35.1826 32 38.2348 30.7357 40.4853 28.4853C42.7357 26.2348 44 23.1826 44 20C44 16.8174 42.7357 13.7652 40.4853 11.5147C38.2348 9.26428 35.1826 8 32 8C28.8174 8 25.7652 9.26428 23.5147 11.5147C21.2643 13.7652 20 16.8174 20 20C20 23.1826 21.2643 26.2348 23.5147 28.4853C25.7652 30.7357 28.8174 32 32 32Z" fill="#F76D2E"/>
</g>
<defs>
<clipPath id="clip0_91_297">
<rect width="64" height="64" fill="white"/>
</clipPath>
</defs>
</svg>
