<svg xmlns="http://www.w3.org/2000/svg" width="512" height="512" viewBox="0 0 512 512" data-bbox="52.003 97.536 407.994 316.927" style="overflow: visible;"><g transform="matrix(0.6051710357043233, 0, 0, 0.6051710357043233, 140.1301870020352, 95.25677603340404)" data-uid="o-3f0e810137d64a65b359a70f8315c01d" stroke="#ffffff"><svg id="OBJECTS" xmlns="http://www.w3.org/2000/svg" viewBox="0 0 382.93 269.45" width="382.93" height="269.45" data-uid="o-5fc884bd3bc44130b8e693c4e8f9011e"><g data-uid="o-9fde3ba2e5ec48d79560f9148e5b7350"><g data-uid="o-8a74b6fcab204cdca7f9041285e70ea3"><g data-uid="o-c9d4213254904c2fa28ac24f8e581794"><path class="cls-4" d="m362.76 172.62C362.76 78.02 286.07 1.32 191.46 1.32S20.16 78.02 20.16 172.62v54.62h341.48l1.12-54.62Z" fill="#2394f0" data-uid="o-1390f9de27f444edbefe1763faad0895" stroke="#ffffff"></path><path class="cls-5" d="m361.64 228.57H20.16c-.73 0-1.32-.59-1.32-1.32v-54.62C18.84 77.44 96.28 0 191.46 0s172.62 77.44 172.62 172.62v.03l-1.12 54.62c-.02.72-.6 1.29-1.32 1.29Zm-340.16-2.64h338.86l1.09-53.32c0-93.72-76.26-169.96-169.98-169.96S21.49 78.9 21.49 172.62v53.3Zm341.28-53.3h.02-.02Z" fill="#2a3380" data-uid="o-b783abf707e04093a117b7e84997b8ec" stroke="#ffffff"></path></g><g data-uid="o-08ddc329a5db4480af0f3060de7a0bb4"><path class="cls-3" d="m334.44 79.18c-8.79 0-15.92 7.13-15.92 15.92 0 .96.09 1.91.25 2.82-7.46 1.32-13.13 7.83-13.13 15.67 0 8.79 7.13 15.92 15.92 15.92.92 0 1.83-.08 2.71-.23h32.96c-4.7-18.02-12.26-34.88-22.16-50.07-.21 0-.41-.04-.63-.04Z" fill="rgba(240, 240, 240, 1)" data-uid="o-f9d25572802a4c0289205cf1ddd55632" stroke="#ffffff"></path><path class="cls-5" d="m321.56 130.84c-9.51 0-17.24-7.74-17.24-17.25 0-7.95 5.38-14.78 12.97-16.71-.06-.6-.09-1.2-.09-1.79 0-9.51 7.74-17.24 17.24-17.24.16 0 .31.01.47.02h.2c.43.03.82.25 1.06.61 10.15 15.57 17.66 32.55 22.33 50.46.1.4.02.82-.23 1.14-.25.32-.64.51-1.05.51h-32.85c-.95.16-1.89.23-2.82.23Zm12.76-50.34c-8 .06-14.48 6.59-14.48 14.6 0 .86.08 1.73.23 2.59.06.35-.02.7-.22.99-.2.29-.51.49-.85.55-6.98 1.23-12.04 7.28-12.04 14.37 0 8.86 7.98 15.94 17.09 14.39.07-.01.15-.02.22-.02h31.24c-4.56-16.81-11.69-32.77-21.18-47.46Z" fill="#2a3380" data-uid="o-4b94fae5c41740729e082cc8dea2c214" stroke="#ffffff"></path></g><g data-uid="o-e870803e2dc0442f9b5ea07c31d71c05"><path class="cls-3" d="m73.32 114.85c0-7.23-5.86-13.1-13.1-13.1h-5.37c-.33-7.09-5.12-13.02-11.63-15.02-7.42 12.78-13.23 26.61-17.17 41.21h34.16c7.23 0 13.1-5.86 13.1-13.09Z" fill="rgba(240, 240, 240, 1)" data-uid="o-a6a6876f48824d44857e89e0a185855f" stroke="#ffffff"></path><path class="cls-5" d="m60.22 129.27H26.06c-.41 0-.8-.19-1.05-.52-.25-.33-.33-.75-.23-1.15 3.92-14.54 9.74-28.51 17.3-41.53.31-.53.95-.78 1.53-.6 6.76 2.09 11.63 8.01 12.45 14.97h4.15c7.95 0 14.42 6.47 14.42 14.42s-6.47 14.42-14.42 14.42Zm-32.42-2.64h32.42c6.49 0 11.77-5.28 11.77-11.77s-5.28-11.77-11.77-11.77h-5.37c-.71 0-1.29-.56-1.32-1.26-.28-6.04-4.13-11.33-9.7-13.48-6.9 12.05-12.28 24.92-16.03 38.28Z" fill="#2a3380" data-uid="o-340f6764a4504daea2f48fae1cf85f01" stroke="#ffffff"></path></g></g><g data-uid="o-8868c67651ac49eeb39823a38bb76c50"><g data-uid="o-e214c5ea78ec42e495256fc0eeda8749"><g data-uid="o-590d2b8082e74e3484db397114f345c5"><path class="cls-6" d="m95.11 250.74c1.38-4.18-1.19-8.62-5.49-9.52l-38.61-8.01c-5.92-1.23-7.92-8.68-3.4-12.7l29.43-26.25c3.28-2.93 3.28-8.06 0-10.99l-29.43-26.25c-4.51-4.02-2.52-11.47 3.4-12.7l38.61-8.01c4.31-.89 6.87-5.34 5.49-9.52l-12.37-37.45c-1.9-5.74 3.56-11.2 9.3-9.3l37.45 12.37c4.18 1.38 8.62-1.19 9.52-5.49l8.01-38.61c1.23-5.92 8.68-7.92 12.7-3.4l26.25 29.43c2.93 3.28 8.06 3.28 10.99 0l26.25-29.43c4.02-4.51 11.47-2.52 12.7 3.4l8.01 38.61c.89 4.31 5.34 6.87 9.52 5.49l37.45-12.37c5.74-1.9 11.19 3.56 9.3 9.3l-12.37 37.45c-1.38 4.18 1.19 8.62 5.49 9.52l38.61 8.01c5.92 1.23 7.92 8.68 3.4 12.7l-29.43 26.25c-3.28 2.93-3.28 8.06 0 10.99l29.43 26.25c4.51 4.02 2.52 11.47-3.4 12.7l-38.61 8.01c-4.31.89-6.87 5.34-5.49 9.52" fill="#efa238" data-uid="o-da5652b9449b45409bdc56fdea1051a1" stroke="#ffffff"></path><path class="cls-5" d="m287.81 252.06c-.56 0-1.07-.35-1.26-.91-.78-2.35-.51-4.92.72-7.07 1.24-2.14 3.34-3.66 5.76-4.16l38.61-8.01c2.28-.47 4-2.1 4.61-4.35.6-2.25-.08-4.52-1.81-6.07l-29.43-26.25c-1.85-1.65-2.9-4.01-2.9-6.48 0-2.47 1.06-4.83 2.9-6.48l29.43-26.25c1.74-1.55 2.42-3.82 1.81-6.07-.6-2.25-2.32-3.88-4.61-4.35l-38.61-8.01c-2.42-.5-4.52-2.02-5.76-4.16-1.24-2.14-1.5-4.72-.72-7.07l12.37-37.45c.73-2.21.18-4.52-1.47-6.16s-3.95-2.19-6.16-1.46l-37.45 12.37c-2.35.78-4.92.51-7.07-.72-2.14-1.24-3.66-3.33-4.16-5.76l-8.01-38.61c-.47-2.28-2.1-4-4.35-4.61-2.25-.6-4.52.08-6.07 1.81l-26.25 29.43c-1.65 1.85-4.01 2.9-6.48 2.9s-4.84-1.06-6.48-2.9l-26.25-29.43c-1.55-1.74-3.82-2.42-6.07-1.81-2.25.6-3.88 2.32-4.35 4.61l-8.01 38.61c-.5 2.42-2.02 4.52-4.16 5.76-2.14 1.24-4.72 1.5-7.07.73l-37.45-12.37c-2.21-.73-4.52-.18-6.16 1.46-1.65 1.65-2.19 3.95-1.46 6.16l12.37 37.45c.77 2.35.51 4.92-.73 7.07-1.24 2.14-3.34 3.66-5.76 4.16l-38.61 8.01c-2.28.47-4 2.1-4.61 4.35-.6 2.25.07 4.52 1.81 6.07l29.43 26.25c1.85 1.65 2.9 4.01 2.9 6.48s-1.06 4.84-2.9 6.48l-29.43 26.25c-1.74 1.55-2.42 3.82-1.81 6.07.6 2.25 2.32 3.88 4.61 4.35l38.61 8.01c2.42.5 4.52 2.02 5.76 4.16 1.24 2.14 1.5 4.72.73 7.07-.23.69-.98 1.08-1.67.84-.69-.23-1.07-.98-.84-1.67.54-1.63.36-3.42-.5-4.91-.86-1.49-2.32-2.54-4-2.89l-38.61-8.01c-3.23-.67-5.77-3.07-6.62-6.25-.85-3.19.14-6.53 2.61-8.73l29.43-26.25c1.28-1.14 2.02-2.79 2.02-4.51s-.74-3.36-2.02-4.51l-29.43-26.25c-2.46-2.2-3.46-5.54-2.61-8.73.85-3.19 3.39-5.58 6.62-6.26l38.61-8.01c1.68-.35 3.14-1.4 4-2.89.86-1.49 1.04-3.28.5-4.91l-12.37-37.45c-1.03-3.13-.23-6.53 2.11-8.86 2.33-2.33 5.73-3.14 8.86-2.11l37.45 12.37c1.63.54 3.42.36 4.91-.5 1.49-.86 2.54-2.32 2.89-4l8.01-38.61c.67-3.23 3.07-5.77 6.25-6.62 3.19-.86 6.53.14 8.73 2.61l26.25 29.43c1.14 1.28 2.79 2.02 4.51 2.02s3.36-.74 4.51-2.02l26.25-29.43c2.2-2.46 5.53-3.46 8.73-2.61 3.19.85 5.59 3.39 6.26 6.62l8.01 38.61c.35 1.68 1.4 3.14 2.89 4 1.49.86 3.28 1.04 4.91.5l37.45-12.37c3.13-1.03 6.53-.23 8.86 2.11 2.33 2.33 3.14 5.73 2.11 8.86l-12.37 37.45c-.54 1.63-.35 3.42.5 4.91.86 1.49 2.32 2.54 4 2.89l38.61 8.01c3.23.67 5.77 3.07 6.62 6.26s-.15 6.53-2.61 8.73l-29.43 26.24c-1.28 1.14-2.02 2.79-2.02 4.51 0 1.72.74 3.36 2.02 4.51l29.43 26.25c2.46 2.2 3.46 5.54 2.61 8.73-.85 3.19-3.39 5.58-6.62 6.25l-38.61 8.01c-1.68.35-3.14 1.4-4 2.89-.86 1.49-1.04 3.28-.5 4.91.23.69-.15 1.44-.84 1.67-.14.05-.28.07-.42.07Z" fill="#2a3380" data-uid="o-8d4686725daa4de286528e0a41128fb4" stroke="#ffffff"></path></g><g data-uid="o-6855aa900a934930abda3c2ba17c29cc"><path class="cls-1" d="m276.7 200.07c0-47.07-38.16-85.23-85.23-85.23s-85.23 38.16-85.23 85.23v27.18h169.91l.56-27.18Z" fill="#ffc37b" data-uid="o-05394622fb4f4d58a3381160936b7ca6" stroke="#ffffff"></path><path class="cls-5" d="m276.14 228.57H106.23c-.73 0-1.32-.59-1.32-1.32v-27.18c0-47.73 38.83-86.55 86.56-86.55s86.56 38.83 86.56 86.55v.03l-.56 27.18c-.02.72-.6 1.29-1.32 1.29Zm-168.59-2.64h167.29l.53-25.87c0-46.26-37.65-83.9-83.91-83.9s-83.91 37.64-83.91 83.91v25.86Zm169.14-25.86h.02-.02Z" fill="#2a3380" data-uid="o-fcf0eeaf02294ed1958f0c4ba2efa433" stroke="#ffffff"></path></g><path class="cls-3" d="m248.82 153.97c-.56 0-1.12-.27-1.46-.77-.4-.58-.8-1.15-1.2-1.7-.57-.79-.4-1.89.39-2.46.79-.57 1.89-.4 2.46.39.42.58.84 1.17 1.26 1.78.55.8.34 1.9-.46 2.45-.3.21-.65.31-.99.31Z" fill="#fffbf8" data-uid="o-32d6aef33676459aa28449f87a32d717" stroke="#ffffff"></path><path class="cls-3" d="m241.61 145.06c-.46 0-.93-.18-1.27-.54-14.1-14.72-29-15.88-29.15-15.89-.97-.06-1.71-.9-1.64-1.87.06-.97.9-1.7 1.87-1.65.66.04 16.37 1.19 31.48 16.97.67.7.65 1.82-.06 2.49-.34.33-.78.49-1.22.49Z" fill="#fffbf8" data-uid="o-a1ecc2980c2f42dca248bd3953477f6f" stroke="#ffffff"></path></g><g data-uid="o-badb4aefedd946e79c060ff3665b5fed"><g data-uid="o-006a140c94ec462784de96b5d2eb4ef6"><path class="cls-5" d="m172.35 176.05c0 2.12-1.72 3.84-3.84 3.84s-3.84-1.72-3.84-3.84 1.72-3.84 3.84-3.84 3.84 1.72 3.84 3.84Z" fill="#2a3380" data-uid="o-79c910c9cd214b90902eacf712fab12b" stroke="#ffffff"></path><path class="cls-5" d="m168.51 181.44c-2.97 0-5.39-2.42-5.39-5.39s2.41-5.39 5.39-5.39 5.39 2.42 5.39 5.39-2.42 5.39-5.39 5.39Zm0-7.68c-1.27 0-2.29 1.03-2.29 2.3s1.03 2.29 2.29 2.29 2.3-1.03 2.3-2.29-1.03-2.3-2.3-2.3Z" fill="#2a3380" data-uid="o-130e89a17c9843e197639d814bd25da4" stroke="#ffffff"></path></g><g data-uid="o-39290320018d4c6bbf204ba3e40ac983"><path class="cls-5" d="m218.26 176.05c0 2.12-1.72 3.84-3.84 3.84s-3.84-1.72-3.84-3.84 1.72-3.84 3.84-3.84 3.84 1.72 3.84 3.84Z" fill="#2a3380" data-uid="o-92ef22e5a9724799973c0c6d43d5096a" stroke="#ffffff"></path><path class="cls-5" d="m214.42 181.44c-2.97 0-5.39-2.42-5.39-5.39s2.42-5.39 5.39-5.39 5.38 2.42 5.38 5.39-2.41 5.39-5.38 5.39Zm0-7.68c-1.27 0-2.3 1.03-2.3 2.3s1.03 2.29 2.3 2.29 2.29-1.03 2.29-2.29-1.03-2.3-2.29-2.3Z" fill="#2a3380" data-uid="o-93df4757a1fa4d9ba3e7402dfa4b2da4" stroke="#ffffff"></path></g><path class="cls-5" d="m191.7 190.7c-4.5 0-8.16-3.66-8.16-8.16 0-.85.69-1.55 1.55-1.55s1.55.69 1.55 1.55c0 2.79 2.27 5.07 5.07 5.07s5.07-2.27 5.07-5.07c0-.85.69-1.55 1.55-1.55s1.55.69 1.55 1.55c0 4.5-3.66 8.16-8.16 8.16Z" fill="#2a3380" data-uid="o-33cea4dc4ec44ca4b99d470c82086685" stroke="#ffffff"></path></g></g></g><g data-uid="o-d8a23e74c81747f4994982b40504fc57"><g data-uid="o-8bc99a78e33f437c8d735738e0937cb0"><g data-uid="o-9ad408f1c6d0419494fe45f0f670a74b"><g data-uid="o-1d8eab726a604555aa671fc17d64cf62"><path class="cls-3" d="m7.05 173.99l93.62-5.67c39.21-2.38 75.92 18.24 92.33 51.85h0L7.05 173.99Z" fill="#fffbf8" data-uid="o-ce2cdb985e0b468db2ae6a51bb12a56a" stroke="#ffffff"></path><path class="cls-5" d="m193 221.49c-.11 0-.21-.01-.32-.04L6.73 175.28c-.63-.16-1.06-.75-1-1.4.06-.65.59-1.16 1.24-1.2l93.62-5.68c39.45-2.39 77.07 18.74 93.6 52.59.23.46.16 1.01-.16 1.41-.25.31-.64.49-1.03.49ZM15.75 174.79l174.76 43.4c-16.68-31.4-52.37-50.83-89.76-48.55l-85 5.15Z" fill="#2a3380" data-uid="o-0d3fb16e60054fc3a18dc0783f6b4ff6" stroke="#ffffff"></path></g><g data-uid="o-30a4d706fa414caaa211065bcc8a1f46"><path class="cls-3" d="m7.02 176.93l94.12 3.71c34.93.48 80.51 20.21 91.52 42.77h0L7.02 176.93Z" fill="#fffbf8" data-uid="o-5a99194db8fc4e5f8cb42862d83ecd83" stroke="#ffffff"></path><path class="cls-5" d="m192.67 224.72c-.11 0-.21-.01-.32-.04L6.7 178.21c-.66-.16-1.08-.8-.99-1.47.1-.67.72-1.17 1.36-1.13l94.12 3.71c33.23.46 80.97 19.56 92.66 43.51.23.46.16 1.01-.16 1.41-.25.31-.63.49-1.03.49ZM19.76 178.75l170.28 42.63c-12.47-20.15-54.26-38.95-88.91-39.42l-81.36-3.2Z" fill="#2a3380" data-uid="o-7d5c21e8d3454240bb43c3dc6154de78" stroke="#ffffff"></path></g></g><g data-uid="o-ddaff8ed6f76437f86ae1a160ba9ee94"><g data-uid="o-e6a2ce8c62e74f02b6866521151fed57"><path class="cls-3" d="m375.88 173.99l-93.62-5.67c-39.21-2.38-75.92 18.24-92.33 51.85h0l185.95-46.18Z" fill="#fffbf8" data-uid="o-f40d4cb6770b46148ce148a05fd6f41e" stroke="#ffffff"></path><path class="cls-5" d="m189.93 221.49c-.39 0-.77-.18-1.03-.49-.32-.4-.39-.95-.16-1.41 16.53-33.85 54.15-54.98 93.6-52.59l93.62 5.68c.65.04 1.18.55 1.24 1.2.06.65-.37 1.25-1 1.4l-185.95 46.18c-.11.03-.21.04-.32.04Zm86.34-52.03c-35.2 0-68.04 18.99-83.84 48.73l174.76-43.4-85-5.15c-1.98-.12-3.95-.18-5.92-.18Z" fill="#2a3380" data-uid="o-db07467c77884a0da2abb71101df7e2c" stroke="#ffffff"></path></g><g data-uid="o-42c022037f7d4f2fb8262d9d11f631f9"><path class="cls-3" d="m375.9 176.93l-94.12 3.71c-34.93.48-80.51 20.21-91.52 42.77h0l185.64-46.47Z" fill="#fffbf8" data-uid="o-f3448516102e435b9d35da351dfa896b" stroke="#ffffff"></path><path class="cls-5" d="m190.26 224.72c-.39 0-.77-.18-1.03-.49-.32-.4-.39-.95-.16-1.41 11.69-23.95 59.43-43.05 92.69-43.51l94.09-3.71c.67-.02 1.27.46 1.36 1.13.1.67-.33 1.31-.99 1.47l-185.64 46.47c-.11.03-.21.04-.32.04Zm172.91-45.97l-81.33 3.2c-34.68.48-76.48 19.27-88.94 39.42l170.28-42.63Z" fill="#2a3380" data-uid="o-958c42e522924fb7a2e19e47cdd6ee12" stroke="#ffffff"></path></g></g></g><g data-uid="o-35c41a45875b4268ad6eda29cb852c73"><g data-uid="o-86d55bfd891f411197b354ad212d61f3"><path class="cls-2" d="m169.95 204.07L18.82 171.94c-9.03-1.92-17.53 4.98-17.5 14.21l.23 81.97h168.4v-64.06Z" fill="#f86e30" data-uid="o-8e5079a711714f1ab84219d8df56037e" stroke="#ffffff"></path><path class="cls-5" d="m169.95 269.45H1.55c-.73 0-1.32-.59-1.32-1.32L0 186.16c-.01-4.8 2.12-9.29 5.84-12.32 3.73-3.03 8.56-4.19 13.25-3.19l151.13 32.12c.61.13 1.05.67 1.05 1.29v64.06c0 .73-.59 1.32-1.32 1.32Zm-167.08-2.64h165.76v-61.67l-150.08-31.9c-3.91-.83-7.93.14-11.04 2.66-3.1 2.52-4.88 6.26-4.87 10.26l.22 80.66Z" fill="#2a3380" data-uid="o-f37547b4c25c491eaec0a61001e3567c" stroke="#ffffff"></path></g><g data-uid="o-f9d4a074b0ef438a9c1727903c5a23d2"><path class="cls-2" d="m381.38 268.13l.23-81.97c.03-9.23-8.47-16.13-17.5-14.21l-151.13 32.12v64.06h168.4Z" fill="#f86e30" data-uid="o-50ba1984432b4d65be0f60ff3ef53865" stroke="#ffffff"></path><path class="cls-5" d="m381.38 269.45h-168.4c-.73 0-1.32-.59-1.32-1.32v-64.06c0-.62.44-1.16 1.05-1.29l151.13-32.12c4.7-1 9.53.16 13.25 3.19 3.73 3.03 5.86 7.52 5.85 12.32l-.23 81.98c0 .73-.59 1.32-1.32 1.32Zm-167.08-2.64h165.76l.23-80.66c.01-4-1.76-7.74-4.87-10.26-3.11-2.52-7.13-3.48-11.04-2.66l-150.08 31.9v61.67Z" fill="#2a3380" data-uid="o-b41588cc9dda4e6eadefb1017e68b2e4" stroke="#ffffff"></path></g><g data-uid="o-d1ba8444af3540bdb0b477575fd5fb2d"><path class="cls-7" d="m212.98 268.13v-64.06c-13.82 5.48-29.21 5.48-43.02 0v64.06h43.02Z" fill="#f95110" data-uid="o-b409d319c564411e8a407d0018a894f9" stroke="#ffffff"></path><path class="cls-5" d="m212.98 269.45h-43.02c-.73 0-1.32-.59-1.32-1.32v-64.06c0-.44.22-.85.58-1.09.36-.25.82-.3 1.23-.14 13.55 5.38 28.49 5.38 42.05 0 .4-.16.87-.11 1.23.14.36.25.58.66.58 1.09v64.06c0 .73-.59 1.32-1.32 1.32Zm-41.7-2.64h40.38v-60.83c-13.09 4.72-27.29 4.72-40.38 0v60.83Z" fill="#2a3380" data-uid="o-45ab729bbd764ceb8d72f65f083ee2c5" stroke="#ffffff"></path></g><g data-uid="o-97a6460e5da84aa6be724487c97dae37"><path class="cls-3" d="m169.95 222.27v15.33c13.82 5.48 29.21 5.48 43.02 0v-15.33c-13.82 5.48-29.21 5.48-43.02 0Z" fill="#fffbf8" data-uid="o-51263c7647524599a867701c8f387795" stroke="#ffffff"></path><path class="cls-5" d="m191.46 243.05c-7.45 0-14.91-1.41-22-4.22-.5-.2-.84-.69-.84-1.23v-15.33c0-.44.22-.85.58-1.09.36-.25.82-.3 1.23-.14 13.55 5.38 28.49 5.38 42.05 0 .4-.16.87-.11 1.23.14.36.25.58.66.58 1.09v15.33c0 .54-.33 1.03-.84 1.23-7.09 2.81-14.55 4.22-22 4.22Zm-20.19-6.36c13.06 4.95 27.33 4.95 40.38 0v-12.51c-13.09 4.72-27.29 4.72-40.38 0v12.51Z" fill="#2a3380" data-uid="o-911f4b70caf74011ae38ac671d1541e7" stroke="#ffffff"></path></g></g><path class="cls-3" d="m367.76 222.6h-.02c-.97-.01-1.75-.81-1.74-1.79l.33-25.87c.03-2.29-.96-4.43-2.72-5.89-1.76-1.46-4.06-2.04-6.29-1.58l-38.55 7.78c-.96.2-1.89-.42-2.08-1.38-.19-.95.43-1.88 1.38-2.08l38.55-7.78c3.3-.67 6.66.18 9.24 2.33 2.58 2.14 4.04 5.3 4 8.65l-.33 25.87c-.01.97-.8 1.74-1.76 1.74Z" fill="#fffbf8" data-uid="o-cebbe1d51aa641f29164b956fcae33ce" stroke="#ffffff"></path></g></svg></g><g transform="matrix(1.3614322691230125, 0, 0, 1.3614322691230125, -82.2689193139237, 145.7801928387545)" data-uid="o-6489b12b479d40d9a40ccfe5bdec230f"><path text="BookNest" fill="#f86e30" space="preserve" text-anchor="middle" offset="0.5" font-scale="contain" font-size="48" font-family="Lilita One" transform="matrix(1.5756561756134033, 0, 0, 1.5756561756134033, 246.34779316534105, 156.66388238239185)" stroke-width="1" stroke="#ffffff" font-weight="400" font-style="normal" data-fl-textpath="" data-uid="o-73a25514f60c4aaba42ccfc3898d996a" d="M-72.504-24.912L-72.504-24.912Q-72.504-19.92 -76.824-17.328L-76.824-17.328Q-74.472-16.464 -72.888-14.352Q-71.304-12.24 -71.304-8.376Q-71.304-4.512 -74.16-2.256Q-77.016 0 -82.344 0L-82.344 0L-93.672 0Q-94.488 0 -95.016-0.552Q-95.544-1.104 -95.544-2.016L-95.544-2.016L-95.544-32.736Q-95.544-33.264 -95.376-33.432Q-95.208-33.6 -94.68-33.6L-94.68-33.6L-83.736-33.6Q-72.504-33.6 -72.504-24.912ZM-85.32-25.824L-86.328-25.824L-86.328-19.536L-86.088-19.536Q-81.48-19.536 -81.48-22.608L-81.48-22.608Q-81.48-24.288 -82.368-25.056Q-83.256-25.824 -85.32-25.824L-85.32-25.824ZM-85.32-13.872L-86.328-13.872L-86.328-7.632L-85.464-7.632Q-83.4-7.632 -82.44-8.4Q-81.48-9.168 -81.48-10.848Q-81.48-12.528 -82.368-13.2Q-83.256-13.872 -85.32-13.872L-85.32-13.872ZM-65.712-2.832Q-68.712-6.144 -68.712-12Q-68.712-17.856 -65.712-21.168Q-62.712-24.48 -57.624-24.48Q-52.536-24.48 -49.56-21.168Q-46.584-17.856 -46.584-12Q-46.584-6.144 -49.56-2.832Q-52.536 0.48 -57.624 0.48Q-62.712 0.48 -65.712-2.832ZM-57.6-16.464Q-60.312-16.464 -60.312-12.048Q-60.312-7.632 -57.6-7.632Q-54.888-7.632 -54.888-12.048Q-54.888-16.464 -57.6-16.464ZM-41.088-2.832Q-44.088-6.144 -44.088-12Q-44.088-17.856 -41.088-21.168Q-38.088-24.48 -33-24.48Q-27.912-24.48 -24.936-21.168Q-21.96-17.856 -21.96-12Q-21.96-6.144 -24.936-2.832Q-27.912 0.48 -33 0.48Q-38.088 0.48 -41.088-2.832ZM-32.976-16.464Q-35.688-16.464 -35.688-12.048Q-35.688-7.632 -32.976-7.632Q-30.264-7.632 -30.264-12.048Q-30.264-16.464 -32.976-16.464ZM-18.552-0.288L-18.552-33.216Q-18.552-33.984 -14.184-33.984L-14.184-33.984Q-10.104-33.84 -10.104-33.36L-10.104-33.36L-10.104-14.928L-5.352-23.712Q-5.016-24.432 -1.272-24.432Q 2.472-24.432  3.528-23.952L 3.528-23.952L-2.712-13.776L 4.488-0.288Q 4.584-0.096  2.688 0.024Q 0.792 0.144 -0.456 0.144L-0.456 0.144Q-5.064 0.144 -5.4-0.288L-5.4-0.288L-10.152-10.944L-10.152-0.336Q-10.152 0.288 -14.352 0.288Q-18.552 0.288 -18.552-0.288L-18.552-0.288ZM 33.48-32.688L 33.48-1.056Q 33.48-0.048  28.968-0.048Q 24.456-0.048  24.072-0.768L 24.072-0.768L 16.056-15.744L 16.056-0.816Q 16.056 0.048  11.616 0.048Q 7.176 0.048  7.176-0.816L 7.176-0.816L 7.176-32.928Q 7.176-33.648  10.968-33.648L 10.968-33.648Q 12.456-33.648  14.448-33.384Q 16.44-33.12  16.872-32.4L 16.872-32.4L 24.552-17.616L 24.552-32.688Q 24.552-33.6  29.016-33.6Q 33.48-33.6  33.48-32.688L 33.48-32.688ZM 56.184-1.296L 56.184-1.296Q 53.16 0.48  48.408 0.48Q 43.656 0.48  40.392-2.76Q 37.128-6  37.128-11.736Q 37.128-17.472  40.272-20.976Q 43.416-24.48  48.216-24.48Q 53.016-24.48  55.632-22.032Q 58.248-19.584  58.248-16.08L 58.248-16.08Q 58.248-8.304  49.32-8.304L 49.32-8.304L 46.008-8.304Q 46.008-6.864  46.8-6.312Q 47.592-5.76  49.128-5.76L 49.128-5.76Q 52.488-5.76  55.512-7.296L 55.512-7.296Q 55.56-7.344  55.944-6.624L 55.944-6.624Q 57.096-4.56  57.096-3.144Q 57.096-1.728  56.184-1.296ZM 50.184-15.168L 50.184-15.168Q 50.184-17.184  48.216-17.184L 48.216-17.184Q 47.304-17.184  46.656-16.632Q 46.008-16.08  46.008-15.024L 46.008-15.024L 46.008-13.536L 48.6-13.536Q 50.184-13.536  50.184-15.168ZM 62.376-8.64L 62.376-8.64Q 66.264-6.288  68.52-6.288L 68.52-6.288Q 69.96-6.288  69.96-7.296L 69.96-7.296Q 69.96-8.016  67.464-9.168L 67.464-9.168Q 61.464-11.616  61.464-17.184L 61.464-17.184Q 61.464-20.736  64.056-22.608Q 66.648-24.48  70.272-24.48Q 73.896-24.48  76.416-23.712Q 78.936-22.944  78.936-21.696L 78.936-21.696Q 78.936-20.64  77.904-18.912Q 76.872-17.184  76.488-17.04L 76.488-17.04Q 74.424-18.192  72.024-18.192L 72.024-18.192Q 70.728-18.192  70.728-17.28L 70.728-17.28Q 70.728-16.704  71.232-16.296Q 71.736-15.888  73.08-15.288Q 74.424-14.688  75.312-14.208Q 76.2-13.728  77.304-12.864L 77.304-12.864Q 79.608-11.04  79.608-8.112L 79.608-8.112Q 79.608-4.272  77.064-1.896Q 74.52 0.48  69.384 0.48L 69.384 0.48Q 65.976 0.48  63.192-0.672Q 60.408-1.824  60.408-3.84L 60.408-3.84Q 60.408-5.184  61.056-6.672Q 61.704-8.16  62.376-8.64ZM 94.008-17.28L 94.008-0.288Q 94.008 0.288  89.976 0.288L 89.976 0.288Q 85.176 0.096  85.176-0.336L 85.176-0.336L 85.176-17.328L 82.728-17.328Q 81.768-17.328  81.768-20.64L 81.768-20.64Q 81.768-21.504  81.936-22.752Q 82.104-24  82.632-24L 82.632-24L 85.176-24L 85.176-28.224Q 85.176-29.184  89.232-29.184Q 93.288-29.184  93.288-28.416L 93.288-28.416L 93.288-25.344L 93.336-24L 97.416-24Q 98.232-24  98.232-20.64Q 98.232-17.28  97.416-17.28L 97.416-17.28L 94.008-17.28Z" style=""></path></g><path text="Digital Library" fill="#ffffff" space="preserve" text-anchor="middle" offset="0.5" font-scale="contain" font-size="48" font-family="Lilita One" transform="matrix(0.6987779257406777, 0, 0, 0.6987779257406777, 256.52755799365127, 410.2697453051843)" font-weight="400" font-style="normal" data-fl-textpath="" data-uid="o-e05d9c2ebd3c4fecae354f11f3d0c7eb" d="M-143.928-2.208L-143.928-2.208L-143.928-31.008Q-143.928-32.208 -143.328-32.904Q-142.728-33.6 -141.768-33.6L-141.768-33.6L-133.752-33.6Q-126.12-33.6 -122.16-29.76Q-118.2-25.92 -118.2-17.664L-118.2-17.664Q-118.2 0 -133.272 0L-133.272 0L-141.48 0Q-143.928 0 -143.928-2.208ZM-134.232-24.48L-134.712-24.48L-134.712-10.128Q-134.712-9.12 -134.568-8.856Q-134.424-8.592 -133.704-8.592L-133.704-8.592Q-131.064-8.592 -129.696-10.56Q-128.328-12.528 -128.328-17.112Q-128.328-21.696 -129.744-23.088Q-131.16-24.48 -134.232-24.48L-134.232-24.48ZM-105.816-23.856L-105.816-0.288Q-105.816 0.096 -110.208 0.096Q-114.6 0.096 -114.6-0.24L-114.6-0.24L-114.6-23.808Q-114.6-24.144 -110.208-24.144Q-105.816-24.144 -105.816-23.856L-105.816-23.856ZM-105.816-33.744L-105.816-26.688Q-105.816-26.352 -110.208-26.352Q-114.6-26.352 -114.6-26.64L-114.6-26.64L-114.6-33.552Q-114.6-34.032 -110.208-34.032Q-105.816-34.032 -105.816-33.744L-105.816-33.744ZM-92.664 0L-92.664 0Q-97.32 0 -99.864-3Q-102.408-6 -102.408-11.88Q-102.408-17.76 -99.072-21.096Q-95.736-24.432 -90.192-24.432Q-84.648-24.432 -81.048-21.984L-81.048-21.984L-81.048 1.92Q-81.048 5.472 -83.928 7.368Q-86.808 9.264 -91.32 9.264Q-95.832 9.264 -99.384 8.112L-99.384 8.112Q-99.864 6.96 -99.864 6.048L-99.864 6.048Q-99.864 2.976 -98.856 1.536L-98.856 1.536Q-95.64 2.928 -91.992 2.928L-91.992 2.928Q-89.352 2.928 -89.352 1.056L-89.352 1.056L-89.352-0.384Q-91.416 0 -92.664 0ZM-90.456-16.608L-90.456-16.608Q-93.672-16.608 -93.672-11.76L-93.672-11.76Q-93.672-8.736 -92.424-7.824L-92.424-7.824Q-91.608-7.2 -90.792-7.2Q-89.976-7.2 -89.352-7.344L-89.352-7.344L-89.352-16.464Q-89.928-16.608 -90.456-16.608ZM-67.944-23.856L-67.944-0.288Q-67.944 0.096 -72.336 0.096Q-76.728 0.096 -76.728-0.24L-76.728-0.24L-76.728-23.808Q-76.728-24.144 -72.336-24.144Q-67.944-24.144 -67.944-23.856L-67.944-23.856ZM-67.944-33.744L-67.944-26.688Q-67.944-26.352 -72.336-26.352Q-76.728-26.352 -76.728-26.64L-76.728-26.64L-76.728-33.552Q-76.728-34.032 -72.336-34.032Q-67.944-34.032 -67.944-33.744L-67.944-33.744ZM-52.584-17.28L-52.584-0.288Q-52.584 0.288 -56.616 0.288L-56.616 0.288Q-61.416 0.096 -61.416-0.336L-61.416-0.336L-61.416-17.328L-63.864-17.328Q-64.824-17.328 -64.824-20.64L-64.824-20.64Q-64.824-21.504 -64.656-22.752Q-64.488-24 -63.96-24L-63.96-24L-61.416-24L-61.416-28.224Q-61.416-29.184 -57.36-29.184Q-53.304-29.184 -53.304-28.416L-53.304-28.416L-53.304-25.344L-53.256-24L-49.176-24Q-48.36-24 -48.36-20.64Q-48.36-17.28 -49.176-17.28L-49.176-17.28L-52.584-17.28ZM-42.936-17.424L-42.936-17.424Q-44.28-19.824 -44.28-21.336Q-44.28-22.848 -43.464-23.28L-43.464-23.28Q-40.728-24.48 -35.952-24.48Q-31.176-24.48 -29.208-22.248Q-27.24-20.016 -27.24-15.648L-27.24-15.648L-27.24-8.064L-25.608-8.064Q-24.792-8.064 -24.336-7.104Q-23.88-6.144 -23.88-4.464Q-23.88-2.784 -24.72-1.152Q-25.56 0.48 -27 0.48L-27 0.48Q-29.592 0.48 -31.176-0.912L-31.176-0.912Q-31.896-1.488 -32.28-2.304L-32.28-2.304Q-34.488 0.48 -39.144 0.48L-39.144 0.48Q-42.648 0.48 -45.048-2.016Q-47.448-4.512 -47.448-7.92L-47.448-7.92Q-47.448-15.744 -38.088-15.744L-38.088-15.744L-35.448-15.744L-35.448-16.224Q-35.448-17.472 -35.856-17.832Q-36.264-18.192 -37.752-18.192L-37.752-18.192Q-39.576-18.192 -42.936-17.424ZM-39.096-8.592L-39.096-8.592Q-39.096-7.536 -38.52-6.984Q-37.944-6.432 -37.056-6.432Q-36.168-6.432 -35.448-7.152L-35.448-7.152L-35.448-10.848L-36.792-10.848Q-39.096-10.848 -39.096-8.592ZM-12.408-33.264L-12.408-0.384Q-12.408 0.048 -17.304 0.048L-17.304 0.048Q-21.144 0 -21.144-0.336L-21.144-0.336L-21.144-33.024Q-21.144-33.744 -16.488-33.744L-16.488-33.744Q-12.408-33.6 -12.408-33.264L-12.408-33.264ZM 0.696-2.832L 0.696-2.832L 0.696-32.688Q 0.696-33.696  5.568-33.696Q 10.44-33.696  10.44-32.688L 10.44-32.688L 10.44-9.168L 17.832-9.168Q 18.696-9.168  19.032-6.912L 19.032-6.912Q 19.176-5.808  19.176-4.656Q 19.176-3.504  19.032-2.304L 19.032-2.304Q 18.648 0  17.784 0L 17.784 0L 3 0Q 1.944 0  1.32-0.864Q 0.696-1.728  0.696-2.832ZM 30.6-23.856L 30.6-0.288Q 30.6 0.096  26.208 0.096Q 21.816 0.096  21.816-0.24L 21.816-0.24L 21.816-23.808Q 21.816-24.144  26.208-24.144Q 30.6-24.144  30.6-23.856L 30.6-23.856ZM 30.6-33.744L 30.6-26.688Q 30.6-26.352  26.208-26.352Q 21.816-26.352  21.816-26.64L 21.816-26.64L 21.816-33.552Q 21.816-34.032  26.208-34.032Q 30.6-34.032  30.6-33.744L 30.6-33.744ZM 35.16-2.064L 35.16-33.456Q 35.16-34.032  39.312-34.032Q 43.464-34.032  43.464-33.408L 43.464-33.408L 43.464-24.096Q 45.528-24.48  46.392-24.48L 46.392-24.48Q 56.472-24.48  56.472-12.912L 56.472-12.912Q 56.472-6.48  53.376-3Q 50.28 0.48  44.592 0.48Q 38.904 0.48  35.16-2.064L 35.16-2.064ZM 45.048-16.992L 45.048-16.992Q 44.232-16.992  43.464-16.464L 43.464-16.464L 43.464-7.296Q 44.136-7.008  44.88-7.008Q 45.624-7.008  46.392-7.584L 46.392-7.584Q 47.736-8.544  47.736-12.048L 47.736-12.048Q 47.736-16.992  45.048-16.992ZM 70.392-13.44L 70.392-0.048Q 70.392 0.288  66.024 0.288L 66.024 0.288Q 61.656 0.192  61.656-0.096L 61.656-0.096L 61.656-16.032L 60.36-16.032Q 59.592-16.032  59.136-16.968Q 58.68-17.904  58.68-19.296L 58.68-19.296Q 58.68-24.48  61.752-24.48L 61.752-24.48Q 63.912-24.48  65.352-23.16Q 66.792-21.84  66.792-20.16L 66.792-20.16Q 67.8-22.128  69.504-23.304Q 71.208-24.48  72.984-24.48L 72.984-24.48Q 75.768-24.48  76.344-23.04L 76.344-23.04Q 76.488-22.656  76.488-21.912Q 76.488-21.168  76.032-19.248Q 75.576-17.328  75.096-16.464Q 74.616-15.6  74.52-15.6Q 74.424-15.6  73.632-15.96Q 72.84-16.32  72.216-16.32L 72.216-16.32Q 70.392-16.32  70.392-13.44L 70.392-13.44ZM 81.912-17.424L 81.912-17.424Q 80.568-19.824  80.568-21.336Q 80.568-22.848  81.384-23.28L 81.384-23.28Q 84.12-24.48  88.896-24.48Q 93.672-24.48  95.64-22.248Q 97.608-20.016  97.608-15.648L 97.608-15.648L 97.608-8.064L 99.24-8.064Q 100.056-8.064  100.512-7.104Q 100.968-6.144  100.968-4.464Q 100.968-2.784  100.128-1.152Q 99.288 0.48  97.848 0.48L 97.848 0.48Q 95.256 0.48  93.672-0.912L 93.672-0.912Q 92.952-1.488  92.568-2.304L 92.568-2.304Q 90.36 0.48  85.704 0.48L 85.704 0.48Q 82.2 0.48  79.8-2.016Q 77.4-4.512  77.4-7.92L 77.4-7.92Q 77.4-15.744  86.76-15.744L 86.76-15.744L 89.4-15.744L 89.4-16.224Q 89.4-17.472  88.992-17.832Q 88.584-18.192  87.096-18.192L 87.096-18.192Q 85.272-18.192  81.912-17.424ZM 85.752-8.592L 85.752-8.592Q 85.752-7.536  86.328-6.984Q 86.904-6.432  87.792-6.432Q 88.68-6.432  89.4-7.152L 89.4-7.152L 89.4-10.848L 88.056-10.848Q 85.752-10.848  85.752-8.592ZM 114.216-13.44L 114.216-0.048Q 114.216 0.288  109.848 0.288L 109.848 0.288Q 105.48 0.192  105.48-0.096L 105.48-0.096L 105.48-16.032L 104.184-16.032Q 103.416-16.032  102.96-16.968Q 102.504-17.904  102.504-19.296L 102.504-19.296Q 102.504-24.48  105.576-24.48L 105.576-24.48Q 107.736-24.48  109.176-23.16Q 110.616-21.84  110.616-20.16L 110.616-20.16Q 111.624-22.128  113.328-23.304Q 115.032-24.48  116.808-24.48L 116.808-24.48Q 119.592-24.48  120.168-23.04L 120.168-23.04Q 120.312-22.656  120.312-21.912Q 120.312-21.168  119.856-19.248Q 119.4-17.328  118.92-16.464Q 118.44-15.6  118.344-15.6Q 118.248-15.6  117.456-15.96Q 116.664-16.32  116.04-16.32L 116.04-16.32Q 114.216-16.32  114.216-13.44L 114.216-13.44ZM 129.192-1.92L 121.032-23.76Q 121.032-24.288  125.424-24.288Q 129.816-24.288  129.96-23.808L 129.96-23.808L 133.416-12.48L 136.728-23.904Q 136.92-24.288  139.704-24.288L 139.704-24.288Q 146.088-24.288  145.8-23.664L 145.8-23.664L 134.52 8.448Q 134.472 8.736  131.904 8.736Q 129.336 8.736  127.128 8.568Q 124.92 8.4  125.016 8.16L 125.016 8.16L 129.192-1.92Z" style="" stroke="#f86e30" stroke-width="3px"></path></svg>